<svg width="24" height="24" viewBox="0 0 24 24" fill="none" xmlns="http://www.w3.org/2000/svg">
<path fill-rule="evenodd" clip-rule="evenodd" d="M12 4.5C7.85786 4.5 4.5 7.85787 4.5 12C4.5 16.1421 7.85786 19.5 12 19.5C16.1421 19.5 19.5 16.1421 19.5 12C19.5 10.8819 19.2558 9.82279 18.8185 8.87151C18.6455 8.49515 18.8104 8.04981 19.1868 7.87682C19.5631 7.70382 20.0085 7.86868 20.1815 8.24504C20.7072 9.38885 21 10.6613 21 12C21 16.9706 16.9706 21 12 21C7.02944 21 3 16.9706 3 12C3 7.02944 7.02944 3 12 3V4.5Z" fill="black"/>
<path d="M12 6.69936V0.800644C12 0.482705 12.3708 0.309021 12.6151 0.51256L16.1543 3.46192C16.3342 3.61184 16.3342 3.88816 16.1543 4.03809L12.6151 6.98745C12.3708 7.19099 12 7.0173 12 6.69936Z" fill="black"/>
</svg>
