<svg width="24" height="24" viewBox="0 0 24 24" fill="none" xmlns="http://www.w3.org/2000/svg">
<path fill-rule="evenodd" clip-rule="evenodd" d="M12 4.5C16.1421 4.5 19.5 7.85787 19.5 12C19.5 16.1421 16.1421 19.5 12 19.5C7.85786 19.5 4.5 16.1421 4.5 12C4.5 10.8819 4.7442 9.82279 5.18146 8.87151C5.35445 8.49515 5.18959 8.04981 4.81323 7.87682C4.43687 7.70382 3.99154 7.86868 3.81854 8.24504C3.29279 9.38885 3 10.6613 3 12C3 16.9706 7.02944 21 12 21C16.9706 21 21 16.9706 21 12C21 7.02944 16.9706 3 12 3V4.5Z" fill="black"/>
<path d="M12 6.69936V0.800644C12 0.482705 11.6292 0.309021 11.3849 0.51256L7.8457 3.46192C7.66579 3.61184 7.66579 3.88816 7.8457 4.03809L11.3849 6.98745C11.6292 7.19099 12 7.0173 12 6.69936Z" fill="black"/>
</svg>
