<svg xmlns="http://www.w3.org/2000/svg" width="24" height="24" fill="none" viewBox="0 0 24 24"><path stroke="#878787" stroke-linecap="round" stroke-linejoin="round" stroke-width="1.4" d="M1 8.04c0-1.764 0-2.646.343-3.32A3.15 3.15 0 012.72 3.343C3.394 3 4.276 3 6.04 3h10.92c1.764 0 2.646 0 3.32.343a3.15 3.15 0 011.377 1.377C22 5.394 22 6.276 22 8.04v8.82c0 1.764 0 2.646-.343 3.32a3.15 3.15 0 01-1.377 1.377c-.674.343-1.556.343-3.32.343H6.04c-1.764 0-2.646 0-3.32-.343a3.15 3.15 0 01-1.377-1.377C1 19.506 1 18.624 1 16.86V8.04z"></path><path stroke="#878787" stroke-width="1.4" d="M1 11.4L10.45 3M1 16.65L15.7 3M2.05 21.9L20.95 3M7.3 21.9L22 8.25M13.6 21.9l8.4-8.4"></path></svg>