<svg xmlns="http://www.w3.org/2000/svg" width="24" height="24" fill="none" viewBox="0 0 24 24"><path stroke="#878787" stroke-linecap="round" stroke-linejoin="round" stroke-width="1.4" d="M20 14h-4.222c-.623 0-.934 0-1.171.121a1.11 1.11 0 00-.486.486c-.121.237-.121.549-.121 1.17V20c0 .622 0 .933.121 1.171.107.21.277.38.486.486.237.12.549.12 1.17.12H20c.622 0 .933 0 1.171-.12.21-.107.38-.277.486-.486.12-.238.12-.549.12-1.171v-4.222c0-.623 0-.934-.12-1.171a1.111 1.111 0 00-.486-.486C20.933 14 20.622 14 20 14zM10.66 9.778h4.882c.622 0 .933 0 1.171-.121.21-.107.38-.277.486-.486C17.319 8.933 14.16 3 13.66 2.5a.705.705 0 00-.997 0c-.497.5-3.78 6.433-3.66 6.671.107.21.277.38.486.486.238.12.549.12 1.17.12z"></path><circle cx="6" cy="16" r="4" stroke="#878787" stroke-width="1.4"></circle></svg>