<svg width="24" height="24" viewBox="0 0 24 24" fill="none" xmlns="http://www.w3.org/2000/svg">
<path d="M10.5 6.375C10.5 6.99632 9.99632 7.5 9.375 7.5C8.75368 7.5 8.25 6.99632 8.25 6.375C8.25 5.75368 8.75368 5.25 9.375 5.25C9.99632 5.25 10.5 5.75368 10.5 6.375Z" fill="black"/>
<path d="M9.20801 8.68799L11.2022 10.0175L13.9848 7.23485C14.099 7.12071 14.2733 7.09241 14.4177 7.1646L17.25 8.62501V11.25C17.25 11.6642 16.9142 12 16.5 12H7.5C7.08579 12 6.75 11.6642 6.75 11.25V10.5C6.75 10.5 9.05928 8.58884 9.20801 8.68799Z" fill="black"/>
<path d="M7.5 13.5C7.08579 13.5 6.75 13.8358 6.75 14.25C6.75 14.6642 7.08579 15 7.5 15H16.5C16.9142 15 17.25 14.6642 17.25 14.25C17.25 13.8358 16.9142 13.5 16.5 13.5H7.5Z" fill="black"/>
<path d="M7.5 16.5C7.08579 16.5 6.75 16.8358 6.75 17.25C6.75 17.6642 7.08579 18 7.5 18H12C12.4142 18 12.75 17.6642 12.75 17.25C12.75 16.8358 12.4142 16.5 12 16.5H7.5Z" fill="black"/>
<path d="M3 3C3 1.34314 4.34315 0 6 0H18C19.6569 0 21 1.34315 21 3V21C21 22.6569 19.6569 24 18 24H6C4.34315 24 3 22.6569 3 21V3ZM18 1.5H6C5.17157 1.5 4.5 2.17157 4.5 3V21C4.5 21.8284 5.17157 22.5 6 22.5H18C18.8284 22.5 19.5 21.8284 19.5 21V3C19.5 2.17157 18.8284 1.5 18 1.5Z" fill="black"/>
</svg>
