<svg xmlns="http://www.w3.org/2000/svg" width="22" height="22" fill="none" viewBox="0 0 22 22"><path stroke="#878787" stroke-linecap="round" stroke-linejoin="round" stroke-width="1.5" d="M11 11h10M11 1v20M6.333 1h9.334c1.867 0 2.8 0 3.513.363.627.32 1.137.83 1.457 1.457C21 3.533 21 4.466 21 6.333v9.334c0 1.867 0 2.8-.363 3.513a3.334 3.334 0 01-1.457 1.457c-.713.363-1.646.363-3.513.363H6.333c-1.867 0-2.8 0-3.513-.363a3.333 3.333 0 01-1.457-1.457C1 18.467 1 17.534 1 15.667V6.333c0-1.867 0-2.8.363-3.513.32-.627.83-1.137 1.457-1.457C3.533 1 4.466 1 6.333 1z"></path></svg>