<svg width="45" height="45" viewBox="0 0 45 45" fill="none" xmlns="http://www.w3.org/2000/svg">
<path d="M8.06087 41.7678C7.84206 43.015 9.07271 43.9913 10.1596 43.4326L22.5043 37.0878L34.849 43.4326C35.9358 43.9913 37.1665 43.015 36.9477 41.7678L34.6141 28.4661L44.5206 19.0255C45.4464 18.1432 44.9672 16.5301 43.7269 16.3539L29.95 14.3968L23.8071 2.22836C23.2538 1.13221 21.7548 1.13221 21.2014 2.22836L15.0586 14.3968L1.28163 16.3539C0.0413488 16.5301 -0.437902 18.1432 0.487919 19.0255L10.3945 28.4661L8.06087 41.7678ZM21.8551 33.9824L11.4889 39.3103L13.4415 28.1804C13.5335 27.6558 13.3605 27.1185 12.9838 26.7595L4.80827 18.9686L16.2054 17.3496C16.6765 17.2826 17.0879 16.9817 17.3102 16.5415L22.5043 6.2524L27.6984 16.5415C27.9206 16.9817 28.332 17.2826 28.8032 17.3496L40.2003 18.9686L32.0248 26.7595C31.6481 27.1185 31.475 27.6558 31.5671 28.1804L33.5197 39.3103L23.1535 33.9824C22.744 33.7719 22.2645 33.7719 21.8551 33.9824Z" fill="black"/>
</svg>
