<svg width="45" height="45" viewBox="0 0 45 45" fill="none" xmlns="http://www.w3.org/2000/svg">
<path d="M22.5 30.9375C17.8401 30.9375 14.0625 27.1599 14.0625 22.5C14.0625 17.8401 17.8401 14.0625 22.5 14.0625C27.1599 14.0625 30.9375 17.8401 30.9375 22.5C30.9375 27.1599 27.1599 30.9375 22.5 30.9375ZM22.5 33.75C28.7132 33.75 33.75 28.7132 33.75 22.5C33.75 16.2868 28.7132 11.25 22.5 11.25C16.2868 11.25 11.25 16.2868 11.25 22.5C11.25 28.7132 16.2868 33.75 22.5 33.75Z" fill="black"/>
<path d="M22.5 0C23.2767 0 23.9062 0.6296 23.9062 1.40625V7.03125C23.9062 7.8079 23.2767 8.4375 22.5 8.4375C21.7233 8.4375 21.0938 7.8079 21.0938 7.03125V1.40625C21.0938 0.6296 21.7233 0 22.5 0Z" fill="black"/>
<path d="M22.5 36.5625C23.2767 36.5625 23.9062 37.1921 23.9062 37.9688V43.5938C23.9062 44.3704 23.2767 45 22.5 45C21.7233 45 21.0938 44.3704 21.0938 43.5938V37.9688C21.0938 37.1921 21.7233 36.5625 22.5 36.5625Z" fill="black"/>
<path d="M45 22.5C45 23.2767 44.3704 23.9063 43.5938 23.9062H37.9688C37.1921 23.9062 36.5625 23.2767 36.5625 22.5C36.5625 21.7233 37.1921 21.0938 37.9688 21.0938H43.5938C44.3704 21.0938 45 21.7233 45 22.5Z" fill="black"/>
<path d="M8.4375 22.5C8.4375 23.2766 7.8079 23.9062 7.03125 23.9062H1.40625C0.6296 23.9062 -3.39485e-08 23.2766 0 22.5C3.39485e-08 21.7233 0.6296 21.0937 1.40625 21.0937H7.03125C7.8079 21.0937 8.4375 21.7233 8.4375 22.5Z" fill="black"/>
<path d="M38.4099 6.59019C38.9591 7.13936 38.9591 8.02975 38.4099 8.57892L34.4324 12.5564C33.8832 13.1056 32.9929 13.1056 32.4437 12.5564C31.8945 12.0072 31.8945 11.1168 32.4437 10.5677L36.4212 6.59019C36.9703 6.04101 37.8607 6.04101 38.4099 6.59019Z" fill="black"/>
<path d="M12.5563 32.4438C13.1055 32.993 13.1055 33.8833 12.5563 34.4325L8.57883 38.41C8.02966 38.9592 7.13927 38.9592 6.59009 38.41C6.04092 37.8608 6.04092 36.9704 6.59009 36.4213L10.5676 32.4438C11.1167 31.8946 12.0071 31.8946 12.5563 32.4438Z" fill="black"/>
<path d="M38.4099 38.41C37.8607 38.9592 36.9703 38.9592 36.4212 38.41L32.4437 34.4325C31.8945 33.8834 31.8945 32.993 32.4437 32.4438C32.9929 31.8946 33.8832 31.8946 34.4324 32.4438L38.4099 36.4213C38.9591 36.9705 38.9591 37.8609 38.4099 38.41Z" fill="black"/>
<path d="M12.5563 12.5564C12.0071 13.1056 11.1167 13.1056 10.5676 12.5564L6.5901 8.57896C6.04092 8.02978 6.04092 7.13939 6.5901 6.59022C7.13927 6.04104 8.02966 6.04104 8.57883 6.59022L12.5563 10.5677C13.1055 11.1169 13.1055 12.0073 12.5563 12.5564Z" fill="black"/>
</svg>
